<svg width="86" height="24" viewBox="0 0 86 24" fill="none" xmlns="http://www.w3.org/2000/svg">
<path d="M13.667 9.76196L13.7842 10.0393L14.084 10.0647L18.3369 10.4329L15.1074 13.2307L14.8789 13.429L14.9473 13.7229L15.918 17.8811L12.2588 15.6741L12 15.5178L11.7422 15.6741L8.08105 17.8821L9.05273 13.7239L9.12109 13.4299L8.89258 13.2317L5.66211 10.4338L9.91602 10.0657L10.2158 10.0403L10.334 9.76294L12 5.83618L13.667 9.76196Z" fill="white" stroke="#820805"/>
<path d="M29.667 9.76196L29.7842 10.0393L30.084 10.0647L34.3369 10.4329L31.1074 13.2307L30.8789 13.429L30.9473 13.7229L31.918 17.8811L28.2588 15.6741L28 15.5178L27.7422 15.6741L24.0811 17.8821L25.0527 13.7239L25.1211 13.4299L24.8926 13.2317L21.6621 10.4338L25.916 10.0657L26.2158 10.0403L26.334 9.76294L28 5.83618L29.667 9.76196Z" fill="white" stroke="#820805"/>
<path d="M44.667 9.76196L44.7842 10.0393L45.084 10.0647L49.3369 10.4329L46.1074 13.2307L45.8789 13.429L45.9473 13.7229L46.918 17.8811L43.2588 15.6741L43 15.5178L42.7422 15.6741L39.0811 17.8821L40.0527 13.7239L40.1211 13.4299L39.8926 13.2317L36.6621 10.4338L40.916 10.0657L41.2158 10.0403L41.334 9.76294L43 5.83618L44.667 9.76196Z" fill="white" stroke="#820805"/>
<path d="M60.667 9.76196L60.7842 10.0393L61.084 10.0647L65.3369 10.4329L62.1074 13.2307L61.8789 13.429L61.9473 13.7229L62.918 17.8811L59.2588 15.6741L59 15.5178L58.7422 15.6741L55.0811 17.8821L56.0527 13.7239L56.1211 13.4299L55.8926 13.2317L52.6621 10.4338L56.916 10.0657L57.2158 10.0403L57.334 9.76294L59 5.83618L60.667 9.76196Z" fill="white" stroke="#820805"/>
<path d="M75.667 9.76196L75.7842 10.0393L76.084 10.0647L80.3369 10.4329L77.1074 13.2307L76.8789 13.429L76.9473 13.7229L77.918 17.8811L74.2588 15.6741L74 15.5178L73.7422 15.6741L70.0811 17.8821L71.0527 13.7239L71.1211 13.4299L70.8926 13.2317L67.6621 10.4338L71.916 10.0657L72.2158 10.0403L72.334 9.76294L74 5.83618L75.667 9.76196Z" fill="white" stroke="#820805"/>
</svg>
