<svg width="11" height="11" viewBox="0 0 11 11" fill="none" xmlns="http://www.w3.org/2000/svg">
<g clip-path="url(#clip0_867_22393)">
<path d="M5.875 0.835938C6.082 0.835938 6.24982 1.00398 6.25 1.21094V5.50293H10.541C10.7481 5.50293 10.916 5.67082 10.916 5.87793C10.916 6.08504 10.7481 6.25293 10.541 6.25293H6.25V10.5439C6.25 10.7511 6.08211 10.9189 5.875 10.9189C5.66789 10.9189 5.5 10.7511 5.5 10.5439V6.25293H1.20801C1.00105 6.25275 0.833008 6.08493 0.833008 5.87793C0.833008 5.67093 1.00105 5.50311 1.20801 5.50293H5.5V1.21094C5.50018 1.00398 5.668 0.835938 5.875 0.835938Z" fill="#121212"/>
</g>
<defs>
<clipPath id="clip0_867_22393">
<rect width="10.083" height="10.083" fill="white"/>
</clipPath>
</defs>
</svg>
